# xmcd CD database file
#
# Track frame offsets:
#	150
#	13312
#	29728
#	44800
#	59144
#	67968
#	79698
#	91034
#	101598
#	113387
#	128101
#	138368
#	150523
#	164461
#	178250
#
# Disc length: 2560 seconds
#
# Revision: 0
# Processed by: cddbd v1.5.2PL0 Copyright (c) Steve Scherf et al.
# Submitted via: CDex 1.70beta2
#
DISCID=cc09fe0f
DTITLE=Ronny  - Das Beste - Hohe Tannen CD2
DYEAR=2012
DGENRE=Country
TTITLE0=Kleine Annabell   
TTITLE1=Sierra Madre del Sur   
TTITLE2=Er war nur ein armer Zigeuner   
TTITLE3=Bei Dir am Red River (Die Sonne geht unter...)   
TTITLE4=Muss i denn, muss i denn (zum Städtele hinaus)   
TTITLE5=Dunja, Du   
TTITLE6=Sie war so wunderbar   
TTITLE7=Kenn' ein Land   
TTITLE8=Little Sweetheart Belinda   
TTITLE9=Swanee River   
TTITLE10=Eine kleine Träne   
TTITLE11=Glory Glory Hallelujah   
TTITLE12=Laura, oh, Laura   
TTITLE13=Du, Du liegst mir im Herzen   
TTITLE14=Darling Good Night   
EXTD=YEAR: 2012
EXTT0=
EXTT1=
EXTT2=
EXTT3=
EXTT4=
EXTT5=
EXTT6=
EXTT7=
EXTT8=
EXTT9=
EXTT10=
EXTT11=
EXTT12=
EXTT13=
EXTT14=
PLAYORDER=
